<svg>
    <symbol id="logo" viewBox="0 0 111 54" fill="none" xmlns="http://www.w3.org/2000/svg">
        <path d="M23.7988 1.17285C25.3609 -0.389246 27.894 -0.389245 29.4561 1.17285L40.9111 12.6279L29.7402 23.7988C28.1782 25.3609 28.1782 27.894 29.7402 29.4561L40.9121 40.6279L29.4561 52.084C27.894 53.6461 25.3609 53.6461 23.7988 52.084L1.17188 29.457C-0.390222 27.8949 -0.390223 25.3619 1.17188 23.7998L23.7988 1.17285ZM80.9355 1.17285C82.4976 -0.389246 85.0307 -0.389245 86.5928 1.17285L109.22 23.7998C110.782 25.3619 110.782 27.8949 109.22 29.457L86.5928 52.084C85.0307 53.6461 82.4976 53.6461 80.9355 52.084L69.4795 40.6279L80.6523 29.4561C82.2142 27.8939 82.2144 25.3608 80.6523 23.7988L69.4805 12.627L80.9355 1.17285ZM52.3682 1.17188C53.9303 -0.389966 56.4624 -0.390068 58.0244 1.17188L69.4805 12.627L58.3086 23.7998C56.7465 25.3619 56.7465 27.8949 58.3086 29.457L69.4795 40.6279L58.0244 52.084C56.4624 53.6457 53.9302 53.6456 52.3682 52.084L40.9121 40.6279L52.083 29.457C53.6451 27.8949 53.6451 25.3619 52.083 23.7998L40.9111 12.6279L52.3682 1.17188Z" fill="currentColor" />
    </symbol>
    <symbol id="whatsapp" viewBox="0 0 20 21" fill="none" xmlns="http://www.w3.org/2000/svg">
        <path fill-rule="evenodd" clip-rule="evenodd" d="M10 0.627903C4.477 0.627903 0 5.1049 0 10.6279C0 12.5179 0.525 14.2879 1.438 15.7959L0.546 18.8279C0.494785 19.002 0.491415 19.1867 0.536244 19.3625C0.581074 19.5383 0.672448 19.6988 0.800759 19.8271C0.929071 19.9555 1.08958 20.0468 1.26542 20.0917C1.44125 20.1365 1.62592 20.1331 1.8 20.0819L4.832 19.1899C6.39074 20.1328 8.17824 20.6302 10 20.6279C15.523 20.6279 20 16.1509 20 10.6279C20 5.1049 15.523 0.627903 10 0.627903ZM7.738 12.8909C9.761 14.9129 11.692 15.1799 12.374 15.2049C13.411 15.2429 14.421 14.4509 14.814 13.5319C14.8632 13.4175 14.881 13.292 14.8655 13.1684C14.85 13.0449 14.8019 12.9277 14.726 12.8289C14.178 12.1289 13.437 11.6259 12.713 11.1259C12.5619 11.0211 12.3761 10.9791 12.1946 11.0085C12.0131 11.038 11.8502 11.1367 11.74 11.2839L11.14 12.1989C11.1083 12.2479 11.0591 12.283 11.0025 12.2971C10.9459 12.3112 10.886 12.3033 10.835 12.2749C10.428 12.0419 9.835 11.6459 9.409 11.2199C8.983 10.7939 8.611 10.2279 8.402 9.8469C8.37672 9.79836 8.36957 9.74239 8.38185 9.68905C8.39413 9.63571 8.42503 9.5885 8.469 9.5559L9.393 8.8699C9.52525 8.7555 9.61062 8.59631 9.63277 8.42285C9.65491 8.24939 9.61226 8.07386 9.513 7.9299C9.065 7.2739 8.543 6.4399 7.786 5.8869C7.6881 5.81656 7.57369 5.7727 7.45385 5.75956C7.33402 5.74642 7.21282 5.76445 7.102 5.8119C6.182 6.2059 5.386 7.2159 5.424 8.2549C5.449 8.9369 5.716 10.8679 7.738 12.8909Z" fill="currentColor" />
    </symbol>
    <symbol id="telegram" viewBox="0 0 23 20" fill="none" xmlns="http://www.w3.org/2000/svg">
        <path d="M1.58216 8.80739C7.75516 6.12631 11.8719 4.35847 13.9325 3.50387C19.8141 1.06556 21.0354 0.642169 21.8319 0.628095C22.0084 0.624577 22.399 0.667971 22.6531 0.874389C22.8673 1.04679 22.9261 1.28136 22.9543 1.44556C22.9826 1.60975 23.0179 1.98388 22.9896 2.27592C22.6719 5.61496 21.2918 13.7157 20.5894 17.4546C20.2929 19.0356 19.7094 19.5657 19.1423 19.6185C17.9128 19.7311 16.9798 18.8093 15.7891 18.0305C13.9242 16.8119 12.8712 16.0531 11.0617 14.865C8.97094 13.4917 10.3263 12.7364 11.5182 11.5025C11.83 11.18 17.248 6.26705 17.3539 5.82137C17.3657 5.76508 17.3786 5.55749 17.2551 5.44842C17.1315 5.33817 16.9492 5.3757 16.8162 5.40619C16.6288 5.44841 13.6513 7.41016 7.8838 11.2914C7.03746 11.87 6.27191 12.1519 5.58716 12.137C4.83063 12.1206 3.37523 11.7113 2.29515 11.3606C0.967993 10.9302 -0.0862022 10.7039 0.00556931 9.97318C0.053416 9.59319 0.578945 9.20459 1.58216 8.80739Z" fill="currentColor" />
    </symbol>
    <symbol id="loop" viewBox="0 0 24 24" fill="none" xmlns="http://www.w3.org/2000/svg">
        <path d="M22 21.6279L15.8702 15.4981M15.8702 15.4981C17.3406 14.0278 18.25 11.9966 18.25 9.7529C18.25 5.26559 14.6123 1.6279 10.125 1.6279C5.63769 1.6279 2 5.26559 2 9.7529C2 14.2402 5.63769 17.8779 10.125 17.8779C12.3687 17.8779 14.3999 16.9685 15.8702 15.4981Z" stroke="currentColor" stroke-width="3" stroke-linecap="round" stroke-linejoin="round" />
    </symbol>
    <symbol id="left-arrow" width="24" height="21" viewBox="0 0 24 21" fill="none" xmlns="http://www.w3.org/2000/svg">
        <path d="M10.5714 19L2 10.5M2 10.5L10.5714 2M2 10.5L22 10.5" stroke="currentColor" stroke-width="3" stroke-linecap="round" stroke-linejoin="round" />
    </symbol>
    <symbol id="right-arrow" width="24" height="21" viewBox="0 0 24 21" fill="none" xmlns="http://www.w3.org/2000/svg">
        <path d="M13.4286 2L22 10.5M22 10.5L13.4286 19M22 10.5H2" stroke="currentColor" stroke-width="3" stroke-linecap="round" stroke-linejoin="round" />
    </symbol>
    <symbol id="down-arrow" viewBox="0 0 16 8" fill="none" xmlns="http://www.w3.org/2000/svg">
        <path d="M7.65331 7.6664C7.8469 7.85268 8.1531 7.85268 8.34669 7.6664L14.9002 1.36029C15.2245 1.0482 15.0036 0.5 14.5535 0.5H1.4465C0.996391 0.5 0.775474 1.0482 1.09981 1.36029L7.65331 7.6664Z" fill="currentColor" />
    </symbol>
    <symbol id="storage" width="20" height="16" viewBox="0 0 20 16" fill="none" xmlns="http://www.w3.org/2000/svg">
        <path d="M15.75 10.9992H4.2625C4.125 10.9992 4.0125 11.1117 4.0125 11.2492L4.00938 12.7492C4.00938 12.8867 4.12188 12.9992 4.25938 12.9992H15.75C15.8875 12.9992 16 12.8867 16 12.7492V11.2492C16 11.1117 15.8875 10.9992 15.75 10.9992ZM15.75 13.9992H4.25313C4.11563 13.9992 4.00313 14.1117 4.00313 14.2492L4 15.7492C4 15.8867 4.1125 15.9992 4.25 15.9992H15.75C15.8875 15.9992 16 15.8867 16 15.7492V14.2492C16 14.1117 15.8875 13.9992 15.75 13.9992ZM15.75 7.99922H4.26875C4.13125 7.99922 4.01875 8.11172 4.01875 8.24922L4.01562 9.74922C4.01562 9.88672 4.12812 9.99922 4.26562 9.99922H15.75C15.8875 9.99922 16 9.88672 16 9.74922V8.24922C16 8.11172 15.8875 7.99922 15.75 7.99922ZM19.0781 3.65547L10.575 0.114846C10.3922 0.0390267 10.1963 0 9.99844 0C9.80057 0 9.60464 0.0390267 9.42188 0.114846L0.921875 3.65547C0.365625 3.88985 0 4.4336 0 5.03985V15.7492C0 15.8867 0.1125 15.9992 0.25 15.9992H2.75C2.8875 15.9992 3 15.8867 3 15.7492V7.99922C3 7.44922 3.45625 6.99922 4.01875 6.99922H15.9812C16.5437 6.99922 17 7.44922 17 7.99922V15.7492C17 15.8867 17.1125 15.9992 17.25 15.9992H19.75C19.8875 15.9992 20 15.8867 20 15.7492V5.03985C20 4.4336 19.6344 3.88985 19.0781 3.65547Z" fill="currentColor" />
    </symbol>
    <symbol id="volume" width="19" height="18" viewBox="0 0 19 18" fill="none" xmlns="http://www.w3.org/2000/svg">
        <path d="M7.31397 5.73049L7.82897 7.59349C8.31397 9.34849 8.55597 10.2265 9.26897 10.6255C9.98197 11.0255 10.887 10.7895 12.697 10.3195L14.617 9.81949C16.427 9.34949 17.332 9.11449 17.744 8.42349C18.156 7.73149 17.914 6.85349 17.428 5.09849L16.914 3.23649C16.429 1.48049 16.186 0.602486 15.474 0.203486C14.76 -0.196514 13.855 0.0394861 12.045 0.510486L10.125 1.00849C8.31497 1.47849 7.40997 1.71449 6.99897 2.40649C6.58697 3.09749 6.82897 3.97549 7.31397 5.73049Z" fill="currentColor" />
        <path d="M0.0271879 2.24752C0.0535346 2.15254 0.0983431 2.06369 0.159052 1.98604C0.21976 1.9084 0.295178 1.84348 0.380993 1.795C0.466807 1.74652 0.561336 1.71543 0.659175 1.70351C0.757013 1.69158 0.856242 1.69906 0.951188 1.72552L2.65419 2.19752C3.1054 2.32036 3.51714 2.55787 3.84938 2.88696C4.18161 3.21604 4.42304 3.6255 4.55019 4.07552L6.70119 11.8615L6.85919 12.4085C7.49694 12.6436 8.03437 13.091 8.38119 13.6755L8.69119 13.5795L17.5612 11.2745C17.6565 11.2497 17.7558 11.2439 17.8534 11.2575C17.951 11.271 18.0449 11.3036 18.1299 11.3535C18.2149 11.4034 18.2892 11.4695 18.3486 11.5481C18.408 11.6267 18.4514 11.7162 18.4762 11.8115C18.501 11.9069 18.5068 12.0061 18.4933 12.1037C18.4797 12.2013 18.4471 12.2953 18.3972 12.3802C18.3473 12.4652 18.2812 12.5395 18.2026 12.5989C18.124 12.6583 18.0345 12.7017 17.9392 12.7265L9.10219 15.0225L8.77219 15.1245C8.76619 16.3945 7.88919 17.5565 6.56219 17.9005C4.97219 18.3145 3.33719 17.3985 2.91119 15.8565C2.48519 14.3145 3.42919 12.7275 5.01919 12.3145C5.09852 12.2945 5.17752 12.2772 5.25619 12.2625L3.10419 4.47452C3.04599 4.27456 2.93718 4.09302 2.78827 3.94744C2.63936 3.80186 2.4554 3.69718 2.25419 3.64352L0.550188 3.17052C0.455231 3.14427 0.366376 3.09957 0.288698 3.03898C0.21102 2.97838 0.146041 2.90308 0.0974735 2.81736C0.0489056 2.73165 0.0177004 2.63721 0.00564059 2.53943C-0.00641918 2.44166 0.000902701 2.34246 0.0271879 2.24752Z" fill="currentColor" />
    </symbol>
    <symbol id="drawing" width="20" height="20" viewBox="0 0 20 20" fill="none" xmlns="http://www.w3.org/2000/svg">
        <path d="M17.352 5.61711L13.392 2.05411C12.265 1.03911 11.702 0.531113 11.009 0.266113L11 3.00011C11 5.35711 11 6.53611 11.732 7.26811C12.464 8.00011 13.643 8.00011 16 8.00011H19.58C19.218 7.29611 18.568 6.71211 17.352 5.61711Z" fill="currentColor" />
        <path fill-rule="evenodd" clip-rule="evenodd" d="M8 20H12C15.771 20 17.657 20 18.828 18.828C19.999 17.656 20 15.771 20 12V11.563C20 10.69 20 10.034 19.957 9.5H15.905C14.808 9.5 13.838 9.5 13.057 9.395C12.21 9.281 11.363 9.02 10.672 8.329C9.98 7.637 9.719 6.79 9.605 5.943C9.5 5.162 9.5 4.193 9.5 3.095L9.51 0.261C9.51 0.178333 9.51667 0.097 9.53 0.017C9.121 -4.09782e-08 8.636 0 8.03 0C4.239 0 2.343 -1.19209e-07 1.172 1.172C-1.19209e-07 2.343 0 4.229 0 8V12C0 15.771 -1.19209e-07 17.657 1.172 18.828C2.344 19.999 4.229 20 8 20ZM9 16C10.105 16 11 15.21 11 14.235C11 13.463 10.438 12.806 9.654 12.567C9.543 11.685 8.696 11 7.667 11C6.562 11 5.667 11.79 5.667 12.765C5.667 12.98 5.71 13.187 5.791 13.378C5.69474 13.3626 5.59748 13.3542 5.5 13.353C4.672 13.353 4 13.945 4 14.677C4 15.407 4.672 16 5.5 16H9Z" fill="currentColor" />
    </symbol>
    <symbol id="result" width="19" height="20" viewBox="0 0 19 20" fill="none" xmlns="http://www.w3.org/2000/svg">
        <path d="M19 5.75866V5.83411C19 6.723 19 7.16848 18.8033 7.5323C18.6067 7.89612 18.2486 8.11214 17.5342 8.54522L16.7808 9C17.2995 7.08992 17.4733 5.03721 17.537 3.28217L17.5465 3.05375L17.5484 3C18.1668 3.23359 18.5145 3.40827 18.7311 3.73488C19 4.14109 19 4.68062 19 5.75866ZM0 5.75866V5.83411C0 6.723 1.41561e-08 7.16848 0.19665 7.5323C0.3933 7.89612 0.75145 8.11214 1.46585 8.54522L2.22015 9C1.7005 7.08992 1.52665 5.03721 1.463 3.28217L1.4535 3.05375L1.45255 3C0.83315 3.23359 0.48545 3.40827 0.26885 3.73488C0 4.14109 0 4.68165 0 5.75866Z" fill="currentColor" />
        <path fill-rule="evenodd" clip-rule="evenodd" d="M13.572 0.334672C12.2259 0.106237 10.8639 -0.00563401 9.49992 0.00021821C7.84115 0.00021821 6.47357 0.151542 5.42788 0.334672C4.36823 0.519731 3.83888 0.61226 3.39604 1.17707C2.95414 1.74189 2.97739 2.352 3.02391 3.57223C3.18486 7.76303 4.0575 12.9986 8.80218 13.4613V16.8675H7.47181C7.25682 16.8676 7.0485 16.9449 6.88229 17.0862C6.71608 17.2275 6.60222 17.424 6.56009 17.6424L6.38332 18.5542H3.91795C3.7329 18.5542 3.55543 18.6304 3.42457 18.766C3.29372 18.9015 3.22021 19.0854 3.22021 19.2771C3.22021 19.4688 3.29372 19.6527 3.42457 19.7883C3.55543 19.9238 3.7329 20 3.91795 20H15.0819C15.2669 20 15.4444 19.9238 15.5753 19.7883C15.7061 19.6527 15.7796 19.4688 15.7796 19.2771C15.7796 19.0854 15.7061 18.9015 15.5753 18.766C15.4444 18.6304 15.2669 18.5542 15.0819 18.5542H12.6165L12.4398 17.6424C12.3976 17.424 12.2838 17.2275 12.1176 17.0862C11.9513 16.9449 11.743 16.8676 11.528 16.8675H10.1977V13.4613C14.9423 12.9986 15.8159 7.76399 15.9759 3.57223C16.0225 2.352 16.0466 1.74092 15.6038 1.17707C15.161 0.61226 14.6316 0.519731 13.572 0.334672Z" fill="currentColor" />
    </symbol>
    <symbol id="update" width="20" height="20" viewBox="0 0 20 20" fill="none" xmlns="http://www.w3.org/2000/svg">
        <path fill-rule="evenodd" clip-rule="evenodd" d="M20 10C20 15.523 15.523 20 10 20C8.40001 20 6.88801 19.624 5.54801 18.956C5.19415 18.7727 4.78539 18.7254 4.39901 18.823L2.17301 19.419C1.95268 19.4778 1.72077 19.4776 1.50054 19.4184C1.28031 19.3593 1.07952 19.2432 0.918327 19.0819C0.757131 18.9206 0.641199 18.7197 0.582168 18.4995C0.523136 18.2792 0.523083 18.0473 0.582013 17.827L1.17701 15.601C1.27407 15.2148 1.2264 14.8065 1.04301 14.453C0.354644 13.0697 -0.00243531 11.5451 1.25004e-05 10C1.25004e-05 4.477 4.47701 0 10 0C15.523 0 20 4.477 20 10ZM5.50001 9.108C5.50001 10.477 6.81901 11.913 8.02901 12.942C8.85201 13.642 9.26401 13.993 10 13.993C10.736 13.993 11.148 13.643 11.971 12.942C13.181 11.912 14.5 10.477 14.5 9.108C14.5 6.431 12.025 5.432 10 7.5C7.97501 5.432 5.50001 6.431 5.50001 9.108Z" fill="currentColor" />
    </symbol>
    <symbol id="download" width="23" height="23" viewBox="0 0 23 23" fill="none" xmlns="http://www.w3.org/2000/svg">
        <path d="M19.6629 5.53504L15.5091 1.8495C14.3269 0.799586 13.7364 0.274114 13.0094 0L13 2.82803C13 5.2661 13 6.48565 13.7678 7.24282C14.5357 8 15.7724 8 18.2448 8H22C21.6203 7.27179 20.9385 6.6677 19.6629 5.53504Z" fill="currentColor" />
        <path fill-rule="evenodd" clip-rule="evenodd" d="M9.2 23H13.8C18.1366 23 20.3055 23 21.6522 21.6522C22.9988 20.3044 23 18.1366 23 13.8V13.2974C23 12.2935 23 11.5391 22.9506 10.925H18.2908C17.0292 10.925 15.9137 10.925 15.0155 10.8043C14.0415 10.6732 13.0674 10.373 12.2728 9.57835C11.477 8.78255 11.1768 7.8085 11.0457 6.83445C10.925 5.9363 10.925 4.82195 10.925 3.55925L10.9365 0.30015C10.9365 0.205083 10.9442 0.11155 10.9595 0.01955C10.4891 -4.71249e-08 9.9314 0 9.2345 0C4.87485 0 2.69445 -1.37091e-07 1.3478 1.3478C-1.37091e-07 2.69445 0 4.86335 0 9.2V13.8C0 18.1366 -1.37091e-07 20.3055 1.3478 21.6522C2.6956 22.9988 4.86335 23 9.2 23ZM6.88505 19.6041C7.04492 19.7539 7.25585 19.8374 7.475 19.8374C7.69415 19.8374 7.90508 19.7539 8.06495 19.6041L10.3649 17.4478C10.5279 17.2904 10.6224 17.0752 10.628 16.8487C10.6336 16.6223 10.5498 16.4027 10.3949 16.2374C10.2399 16.0722 10.0261 15.9745 9.79973 15.9656C9.57336 15.9567 9.35256 16.0372 9.18505 16.1897L8.3375 16.9832V13.225C8.3375 12.9963 8.24663 12.7769 8.08488 12.6151C7.92313 12.4534 7.70375 12.3625 7.475 12.3625C7.24625 12.3625 7.02687 12.4534 6.86512 12.6151C6.70337 12.7769 6.6125 12.9963 6.6125 13.225V16.9843L5.76495 16.1897C5.59744 16.0372 5.37664 15.9567 5.15027 15.9656C4.92389 15.9745 4.71012 16.0722 4.55515 16.2374C4.40017 16.4027 4.31643 16.6223 4.32203 16.8487C4.32762 17.0752 4.4221 17.2904 4.58505 17.4478L6.88505 19.6041Z" fill="currentColor" />
    </symbol>
    <symbol id="sort" viewBox="0 0 28 23" fill="none" xmlns="http://www.w3.org/2000/svg">
        <path d="M2 7.42857L7.33333 2M7.33333 2L12.6667 7.42857M7.33333 2V21M26 15.5714L20.6667 21M20.6667 21L15.3333 15.5714M20.6667 21V2" stroke="currentColor" stroke-width="3" stroke-linecap="round" stroke-linejoin="round" />
    </symbol>
    <symbol id='loading' viewBox="0 0 34 32" fill="none" xmlns="http://www.w3.org/2000/svg">
        <path d="M17.0346 30.8403C25.3537 30.8403 32.0973 24.1962 32.0973 15.9998C32.0973 7.80331 25.3537 1.15918 17.0346 1.15918C8.71549 1.15918 1.97192 7.80331 1.97192 15.9998C1.97192 24.1962 8.71549 30.8403 17.0346 30.8403Z" fill="white" stroke="white" stroke-width="2" stroke-linecap="round" stroke-linejoin="round" />
        <path d="M17.0347 7.09521V9.3213M23.425 9.70345L21.8276 11.2773M26.0723 15.9996H23.8129M23.425 22.2957L21.8276 20.7218M17.0347 24.9039V22.6778M10.6443 22.2957L12.2417 20.7218M7.99707 15.9996H10.2565M10.6443 9.70345L12.2417 11.2773" stroke="black" stroke-width="2" stroke-linecap="round" stroke-linejoin="round" />
    </symbol>
    <symbol id="success" viewBox="0 0 32 32" fill="none" xmlns="http://www.w3.org/2000/svg">
        <path d="M16 0C12.8355 0 9.74207 0.938384 7.11088 2.69649C4.4797 4.45459 2.42894 6.95345 1.21793 9.87706C0.00693253 12.8007 -0.309921 16.0177 0.307443 19.1214C0.924806 22.2251 2.44866 25.0761 4.6863 27.3137C6.92394 29.5513 9.77487 31.0752 12.8786 31.6926C15.9823 32.3099 19.1993 31.9931 22.1229 30.7821C25.0466 29.5711 27.5454 27.5203 29.3035 24.8891C31.0616 22.2579 32 19.1645 32 16C32 11.7565 30.3143 7.68687 27.3137 4.68629C24.3131 1.68571 20.2435 0 16 0ZM13.7143 22.3886L8.00001 16.6743L9.81715 14.8571L13.7143 18.7543L22.1829 10.2857L24.0069 12.0983L13.7143 22.3886Z" fill="#FBFBFB" />
    </symbol>
</svg>